<svg width="49" height="45" viewBox="0 0 49 45" fill="none" xmlns="http://www.w3.org/2000/svg">
<g clip-path="url(#clip0_1_219)">
<g clip-path="url(#clip1_1_219)">
<g clip-path="url(#clip2_1_219)">
<g filter="url(#filter0_d_1_219)">
<path d="M24.3677 26.2827C20.7034 28.6595 16.8267 29.8174 13.5678 29.8345C10.289 29.8515 7.85843 28.7342 6.6284 26.8378C5.39835 24.9415 5.36923 22.2666 6.72181 19.2797C8.06614 16.311 10.7042 13.2433 14.3685 10.8666C18.0328 8.4899 21.9095 7.33191 25.1684 7.31489C28.4473 7.29777 30.8777 8.41507 32.1078 10.3114C33.3379 12.2078 33.367 14.8828 32.0144 17.8696C30.6702 20.8384 28.0321 23.906 24.3677 26.2827Z" stroke="url(#paint0_linear_1_219)" stroke-width="3.0625"/>
</g>
</g>
</g>
</g>
<defs>
<filter id="filter0_d_1_219" x="-0.163402" y="-0.086345" width="49.2713" height="44.4679" filterUnits="userSpaceOnUse" color-interpolation-filters="sRGB">
<feFlood flood-opacity="0" result="BackgroundImageFix"/>
<feColorMatrix in="SourceAlpha" type="matrix" values="0 0 0 0 0 0 0 0 0 0 0 0 0 0 0 0 0 0 127 0" result="hardAlpha"/>
<feOffset dx="5.10417" dy="3.57292"/>
<feGaussianBlur stdDeviation="4.72135"/>
<feColorMatrix type="matrix" values="0 0 0 0 0.988235 0 0 0 0 0.0470588 0 0 0 0 0.65098 0 0 0 0.22 0"/>
<feBlend mode="normal" in2="BackgroundImageFix" result="effect1_dropShadow_1_219"/>
<feBlend mode="normal" in="SourceGraphic" in2="effect1_dropShadow_1_219" result="shape"/>
</filter>
<linearGradient id="paint0_linear_1_219" x1="33.3925" y1="9.47819" x2="5.34371" y2="27.671" gradientUnits="userSpaceOnUse">
<stop stop-color="#FF00A2"/>
<stop offset="1" stop-color="#99A0DD"/>
</linearGradient>
<clipPath id="clip0_1_219">
<rect width="49" height="44.14" fill="white"/>
</clipPath>
<clipPath id="clip1_1_219">
<rect width="49" height="44.14" fill="white"/>
</clipPath>
<clipPath id="clip2_1_219">
<rect width="49" height="44.151" fill="white" transform="translate(0 -0.00561523)"/>
</clipPath>
</defs>
</svg>
